<svg xmlns="http://www.w3.org/2000/svg" 
xmlns:xlink="http://www.w3.org/1999/xlink"
 version="1.1" x="0px" y="0px" viewBox="0 0 1000 1250" enable-background="new 0 0 1000 1000"
  xml:space="preserve"><g><path fill-rule="evenodd" clip-rule="evenodd" 
    d="M802.9,150.5v46.6h-46.6v46.6h-46.6v-46.6h-46.6v-46.6h-46.6v186.4h-46.6v-46.6  
     h-46.6v-46.6H336.9v46.6v0l0,0h-46.6v46.6h-46.6v46.6h-46.6v186.4h46.6v233h46.6v46.6h93.2v-46.6h-46.6v0l0,0v-233l0,0v0h46.6   v-46.6h46.6v-46.6h46.6v46.6h46.6v46.6h46.6v46.6h46.6v186.4h46.6v46.6h93.2v-46.6h-46.6V663.1h46.6V523.3h46.6v-93.2h46.6V150.5   H802.9z M709.7,336.9h-46.6v-46.6h46.6V336.9z M802.9,336.9h-46.6v-46.6h46.6V336.9z"/>
     <rect x="197.1" y="150.5" fill-rule="evenodd" clip-rule="evenodd" width="46.6" height="46.6"/>
     <rect x="150.5" y="197.1" 
    fill-rule="evenodd" clip-rule="evenodd"
     width="139.8" height="559.2"/></g></svg>